<svg xmlns="http://www.w3.org/2000/svg" version="1.1" xmlns:xlink="http://www.w3.org/1999/xlink" xmlns:svgjs="http://svgjs.dev/svgjs" width="1024px" height="1024px"><svg version="1.0" width="1024px" height="1024px" viewBox="0 0 1024 1024" xmlns="http://www.w3.org/2000/svg" xmlns:svg="http://www.w3.org/2000/svg">
  <g fill="#102137" id="SvgjsG1023">
    <path d="M 0.30 512.60 c 0.05 -281.25 0.10 -511.65 0.15 -511.95 0.05 -0.50 102.75 -0.65 511.80 -0.65 l 511.75 0 0 512 0 512 -511.85 0 -511.90 0 0.05 -511.40 z  m 698.70 178.65 c 6.15 -1.10 8.55 -1.60 10.50 -2.15 0.95 -0.30 2.65 -0.75 3.75 -1.05 4.70 -1.30 6.25 -1.80 10.25 -3.45 7.35 -2.90 15.85 -7.45 21.25 -11.30 13.20 -9.40 23.05 -20.55 30.10 -34.15 5.70 -10.95 8.10 -18.70 10.50 -33.65 0.75 -4.75 0.85 -14.05 1 -101.15 l 0.20 -95.85 -26.15 0.10 -26.15 0.15 -0.15 11.15 -0.10 11.10 -1.80 0 c -1.40 0 -2.65 -0.60 -5.15 -2.40 -3.40 -2.50 -10.65 -7.10 -11.20 -7.10 -0.15 0 -1.70 -0.65 -3.45 -1.40 -13.10 -5.95 -27.50 -8.15 -40.90 -6.40 -3.45 0.45 -7.15 1.05 -8.25 1.35 -1.10 0.25 -2.80 0.70 -3.85 0.95 -1 0.30 -4.50 1.50 -7.75 2.70 -18.30 6.80 -34.10 20.50 -44.50 38.55 -8.60 14.95 -13.30 34.75 -11.70 49.75 0.60 6.15 1.75 13.15 2.60 16 0.25 0.95 0.95 3.45 1.50 5.50 2.75 10.50 9.05 21.75 18.05 32.25 12.05 14.05 27.35 23.05 45.95 27.05 6.20 1.35 24.55 1.35 30.20 0 5.40 -1.25 15.30 -4.55 18.45 -6.15 4.20 -2.15 10.35 -6.10 13.90 -8.95 2.80 -2.25 3.65 -2.70 5.35 -2.70 l 2.05 0 0.10 9.90 c 0.20 14.60 -0.05 21.30 -1.10 26.60 -1.75 8.95 -5.85 16.85 -11.95 23 -7.15 7.20 -15.05 11.40 -25.45 13.55 -6.15 1.25 -22.30 1.35 -28.65 0.15 -12.20 -2.25 -23.10 -7.40 -32.60 -15.45 -2.35 -2 -4.15 -3.15 -4.50 -2.90 -0.35 0.15 -4.75 3.85 -9.80 8.10 -5.05 4.30 -10.60 8.90 -12.25 10.25 -1.70 1.40 -4.65 3.85 -6.55 5.50 -1.95 1.70 -4.15 3.55 -4.95 4.20 l -1.45 1.15 4.45 4.15 c 10.50 9.80 19.65 16.25 30.70 21.80 4.95 2.45 14.50 6.25 18.25 7.25 11.40 3.05 18.20 4.35 26 4.95 5.10 0.40 21.10 -0.20 25.25 -0.95 z  m -227 -92.30 c 2.05 -0.30 6.30 -1.10 9.45 -1.80 10.30 -2.35 23.25 -9.80 32.05 -18.45 3 -2.90 3.45 -3.20 5.40 -3.20 l 2.10 0 0.10 10.90 0.15 10.85 25.75 0 25.75 0 -0.10 -94.75 -0.15 -94.75 -16.30 -0.45 c -9.25 -0.25 -20.35 -0.25 -25.65 0 l -9.30 0.45 -0.15 12.40 -0.10 12.35 -1.90 0 c -1.70 0 -2.05 -0.30 -4.85 -3.85 -10.65 -13.60 -31.90 -22.65 -53.05 -22.65 -12.65 0 -25.95 3.60 -39.20 10.60 -9.45 5 -16 9.90 -23.60 17.70 -8.95 9.20 -17.45 22.35 -21.15 32.70 -0.45 1.25 -1.35 3.85 -2.05 5.75 -0.70 1.95 -1.95 6.75 -2.85 10.75 -1.50 6.90 -1.55 7.75 -1.60 18.50 0 10.40 0.10 11.75 1.40 18 0.75 3.70 1.60 7.30 1.80 8 0.25 0.70 0.70 2.25 1.05 3.50 2.95 10.75 11.55 26.30 19.70 35.60 10.60 12.10 20.75 19.60 34.80 25.75 3.90 1.70 12.80 4.35 17.75 5.20 11 2 16.20 2.15 24.75 0.90 z  m -126.60 -0.55 l 10.60 -1.15 -0.10 -23 -0.15 -23 -2.75 0.05 c -1.50 0 -6.45 0.20 -11 0.45 -14.25 0.70 -20.70 -1.25 -25.05 -7.55 -3.05 -4.45 -2.95 -3.40 -2.85 -45.50 l 0.15 -38.45 20.90 -0.15 20.85 -0.10 0 -24.50 0 -24.50 -20.85 -0.10 -20.90 -0.15 -0.15 -28.80 -0.10 -28.80 -1.65 0.20 c -0.85 0.10 -4.40 0.65 -7.85 1.15 -7.80 1.15 -10.80 1.55 -35.10 4.30 l -7.90 0.90 0 24.80 c 0 14.70 -0.20 25.05 -0.50 25.50 -0.40 0.65 -2.80 0.80 -14.85 1 l -14.40 0.25 -0.15 24.35 -0.10 24.40 14.85 0.10 14.90 0.15 0.10 42.75 c 0.15 42.70 0.40 51 1.95 57.15 0.45 1.70 0.90 3.65 1.05 4.35 0.15 0.70 1.45 3.75 2.90 6.75 2.20 4.65 3.35 6.25 6.90 10.05 4.30 4.55 9.40 8.45 14.15 10.85 5.80 2.90 15.30 5.65 22.30 6.40 2.85 0.30 5.25 0.65 5.35 0.75 0.75 0.70 20 0.10 29.45 -0.90 z  M630 360 C 630 348.55 620.75 339.25 609.30 339.25 597.85 339.25 588.60 348.55 588.60 360 588.60 371.45 597.85 380.70 609.30 380.70 620.75 380.70 630 371.45 630 360 Z M614.05 380.50  M688.70 311.65 C 688.70 300.05 679.30 290.65 667.70 290.65 656.10 290.65 646.70 300.05 646.70 311.65 646.70 323.20 656.10 332.60 667.70 332.60 679.30 332.60 688.70 323.20 688.70 311.65 Z M675.75 330.95 " id="SvgjsPath1022"></path>
    <path d="M732.05 502.05 C 732.05 525.40 713.15 544.25 689.85 544.25 666.55 544.25 647.65 525.40 647.65 502.05 647.65 478.75 666.55 459.85 689.85 459.85 713.15 459.85 732.05 478.75 732.05 502.05 Z M684.75 543.70 " id="SvgjsPath1021"></path>
    <path d="M518.95 502.90 C 518.95 529.70 497.20 551.40 470.40 551.40 443.60 551.40 421.90 529.70 421.90 502.90 421.90 476.10 443.60 454.35 470.40 454.35 497.20 454.35 518.95 476.10 518.95 502.90 Z M459.75 550.20 " id="SvgjsPath1020"></path>
  </g>
  <g fill="#f6695f" id="SvgjsG1019">
    <path d="M 318.50 600.95 c -11.20 -0.70 -17.60 -1.90 -26.20 -4.95 -7.30 -2.60 -13.70 -6.90 -19.65 -13.20 -3.55 -3.80 -4.70 -5.40 -6.90 -10.05 -1.45 -3 -2.75 -6.05 -2.90 -6.75 -0.15 -0.70 -0.60 -2.65 -1.05 -4.30 -1.55 -6.25 -1.85 -14.10 -2 -56.95 l -0.15 -43 -14.85 -0.15 -14.80 -0.10 0.10 -25.90 0.15 -25.85 14.40 -0.25 c 11.60 -0.20 14.45 -0.40 14.80 -0.95 0.25 -0.40 0.45 -11.80 0.40 -25.35 0 -13.60 0.10 -24.80 0.20 -24.85 0.10 -0.10 3.70 -0.60 7.95 -1.05 16.75 -1.90 19.95 -2.30 26 -3.05 3.45 -0.40 8.15 -1.10 10.50 -1.50 2.35 -0.35 5.75 -0.85 7.65 -1.05 l 3.35 -0.30 0 2.90 c 0.05 1.65 0.10 14.65 0.15 28.95 l 0.10 26 20.95 0.25 20.95 0.25 -0.10 25.75 -0.05 25.75 -20.90 0.25 -20.85 0.25 -0.15 36.95 c -0.10 40.45 -0.20 39.60 2.85 44 4 5.75 11.15 8.30 21.75 7.60 13.60 -0.80 16.65 -0.90 16.95 -0.50 0.35 0.55 0.70 48.55 0.35 48.85 -0.15 0.10 -5.10 0.65 -11 1.25 -12 1.25 -20.20 1.55 -28 1.05 z " id="SvgjsPath1018"></path>
    <path d="M631.95 360 C 631.95 372.50 621.80 382.65 609.30 382.65 596.80 382.65 586.65 372.50 586.65 360 586.65 347.50 596.80 337.35 609.30 337.35 621.80 337.35 631.95 347.50 631.95 360 Z M604.80 382.45 " id="SvgjsPath1017"></path>
  </g>
  <g fill="#f8bb55" id="SvgjsG1016">
    <path d="M 453 600.75 c -14.35 -2.20 -20.75 -4.15 -31.75 -9.60 -13.10 -6.55 -26.25 -18.50 -35.40 -32.30 -4.95 -7.40 -10.45 -19 -12.35 -25.85 -0.35 -1.25 -0.80 -2.80 -1.05 -3.50 -1.15 -3.50 -3.05 -14.95 -3.35 -20.25 -0.75 -13.15 1.05 -28.10 4.60 -38 0.70 -1.90 1.60 -4.50 2.05 -5.75 3.70 -10.35 12.20 -23.50 21.15 -32.70 7.60 -7.80 14.15 -12.70 23.60 -17.70 19.65 -10.40 39.20 -13.15 60.15 -8.55 13.60 3.05 27.50 11.10 34.90 20.35 1.70 2.10 3.30 3.95 3.50 4 0.25 0.10 0.45 -5.35 0.45 -12.10 l 0 -12.30 1.20 -0.50 c 1.25 -0.45 52.35 -0.35 53.15 0.15 0.20 0.15 0.40 43.55 0.40 96.45 l 0 96.15 -26.95 0.15 c -14.85 0.05 -27.20 -0.10 -27.40 -0.30 -0.25 -0.25 -0.45 -5.20 -0.45 -11 0 -7.65 -0.20 -10.60 -0.60 -10.60 -0.30 0 -2.05 1.45 -3.85 3.20 -8.80 8.65 -21.75 16.10 -32.05 18.40 -12 2.70 -21.70 3.40 -29.95 2.15 z  M517.05 502.90 C 517.05 477.15 496.15 456.25 470.40 456.25 444.70 456.25 423.80 477.15 423.80 502.90 423.80 528.60 444.70 549.50 470.40 549.50 496.15 549.50 517.05 528.60 517.05 502.90 Z M483.65 547.80 " id="SvgjsPath1015"></path>
    <path d="M690.65 311.60 C 690.65 324.25 680.40 334.55 667.70 334.55 655.05 334.55 644.75 324.25 644.75 311.60 644.75 298.95 655.05 288.65 667.70 288.65 680.40 288.65 690.65 298.95 690.65 311.60 Z M664 334.40 " id="SvgjsPath1014"></path>
  </g>
  <g fill="#a6dade" id="SvgjsG1013">
    <path d="M 672.25 693.70 c -7.80 -0.60 -14.60 -1.90 -26 -4.95 -6.60 -1.75 -17.80 -6.75 -26.40 -11.70 -6.10 -3.50 -14.85 -10.15 -21.10 -16.05 -1.90 -1.80 -4.35 -4 -5.40 -4.90 -1.75 -1.45 -1.85 -1.75 -1.25 -2.60 0.60 -0.85 5.60 -5.10 13.40 -11.50 7.10 -5.80 22.30 -18.70 23.10 -19.55 1.10 -1.25 1.50 -1.20 2.95 0.35 2.20 2.35 8.30 7.15 12.30 9.60 11.70 7.30 21.95 10.10 36.65 10.10 11.85 0 18.85 -1.55 27 -5.90 5.15 -2.75 7.50 -4.50 11.55 -8.60 8.10 -8.15 12.75 -19.70 12.95 -32.25 0.25 -12.30 -0.05 -24.25 -0.55 -24.25 -0.25 0 -2 1.20 -3.85 2.70 -7 5.65 -13.90 9.40 -22.40 12.20 -10.95 3.65 -12.50 3.85 -26.45 3.85 -13.60 -0.05 -16.50 -0.40 -25.20 -3.25 -12.10 -3.95 -19.85 -8.35 -29.75 -16.75 -4 -3.35 -11.70 -12.40 -15.60 -18.35 -4 -6.05 -9.05 -16.70 -9.95 -20.90 -0.55 -2.55 -0.95 -4.10 -1.50 -5.75 -1.45 -4.55 -3.25 -17.80 -3.25 -24.25 0.05 -23.45 9.70 -47.10 26 -63.55 6.75 -6.80 11.65 -10.65 19.25 -14.95 5.10 -2.90 14.60 -6.85 19.40 -8.05 9.35 -2.35 12.60 -2.70 23.60 -2.65 9 0 12.70 0.50 20 2.50 5.65 1.60 8.20 2.50 12.15 4.30 1.75 0.75 3.30 1.40 3.45 1.40 0.55 0 7.80 4.60 11.20 7.10 1.85 1.30 3.45 2.40 3.65 2.40 0.15 0 0.35 -5 0.40 -11.10 l 0.15 -11.15 27.45 -0.25 c 18.95 -0.15 27.50 -0.10 27.65 0.30 0.10 0.25 0.10 44.15 0 97.50 -0.15 88.10 -0.25 97.45 -1 102.20 -2.40 14.95 -4.80 22.70 -10.50 33.65 -10.70 20.60 -28.40 36.30 -51.35 45.45 -4 1.65 -5.55 2.15 -10.25 3.45 -1.10 0.30 -2.80 0.75 -3.75 1.05 -1.95 0.55 -4.20 1 -10.50 2.15 -4.15 0.75 -22.65 1.35 -28.25 0.95 z  M730.15 502.05 C 730.15 479.80 712.10 461.80 689.85 461.80 667.60 461.80 649.55 479.80 649.55 502.05 649.55 524.30 667.60 542.35 689.85 542.35 712.10 542.35 730.15 524.30 730.15 502.05 Z M698.45 541.30 " id="SvgjsPath1012"></path>
  </g>
</svg><style>@media (prefers-color-scheme: light) { :root { filter: none; } }
@media (prefers-color-scheme: dark) { :root { filter: none; } }
</style></svg>