<?xml version="1.0" encoding="UTF-8" standalone="no"?>
<svg
   version="1.0"
   width="557.92499"
   height="405.17786"
   viewBox="0 0 557.92499 405.17786"
   id="svg1"
   xmlns="http://www.w3.org/2000/svg"
   xmlns:svg="http://www.w3.org/2000/svg">
  <defs
     id="defs1" />
  <g
     fill="#f6695f"
     id="g5"
     transform="translate(-230,-288.65)">
    <path
       d="m 318.5,600.95 c -11.2,-0.7 -17.6,-1.9 -26.2,-4.95 -7.3,-2.6 -13.7,-6.9 -19.65,-13.2 -3.55,-3.8 -4.7,-5.4 -6.9,-10.05 -1.45,-3 -2.75,-6.05 -2.9,-6.75 -0.15,-0.7 -0.6,-2.65 -1.05,-4.3 -1.55,-6.25 -1.85,-14.1 -2,-56.95 l -0.15,-43 -14.85,-0.15 -14.8,-0.1 0.1,-25.9 0.15,-25.85 14.4,-0.25 c 11.6,-0.2 14.45,-0.4 14.8,-0.95 0.25,-0.4 0.45,-11.8 0.4,-25.35 0,-13.6 0.1,-24.8 0.2,-24.85 0.1,-0.1 3.7,-0.6 7.95,-1.05 16.75,-1.9 19.95,-2.3 26,-3.05 3.45,-0.4 8.15,-1.1 10.5,-1.5 2.35,-0.35 5.75,-0.85 7.65,-1.05 l 3.35,-0.3 v 2.9 c 0.05,1.65 0.1,14.65 0.15,28.95 l 0.1,26 20.95,0.25 20.95,0.25 -0.1,25.75 -0.05,25.75 -20.9,0.25 -20.85,0.25 -0.15,36.95 c -0.1,40.45 -0.2,39.6 2.85,44 4,5.75 11.15,8.3 21.75,7.6 13.6,-0.8 16.65,-0.9 16.95,-0.5 0.35,0.55 0.7,48.55 0.35,48.85 -0.15,0.1 -5.1,0.65 -11,1.25 -12,1.25 -20.2,1.55 -28,1.05 z"
       id="path4" />
    <path
       d="m 631.95,360 c 0,12.5 -10.15,22.65 -22.65,22.65 -12.5,0 -22.65,-10.15 -22.65,-22.65 0,-12.5 10.15,-22.65 22.65,-22.65 12.5,0 22.65,10.15 22.65,22.65 z m -27.15,22.45"
       id="path5" />
  </g>
  <g
     fill="#f8bb55"
     id="g7"
     transform="translate(-230,-288.65)">
    <path
       d="m 453,600.75 c -14.35,-2.2 -20.75,-4.15 -31.75,-9.6 -13.1,-6.55 -26.25,-18.5 -35.4,-32.3 -4.95,-7.4 -10.45,-19 -12.35,-25.85 -0.35,-1.25 -0.8,-2.8 -1.05,-3.5 -1.15,-3.5 -3.05,-14.95 -3.35,-20.25 -0.75,-13.15 1.05,-28.1 4.6,-38 0.7,-1.9 1.6,-4.5 2.05,-5.75 3.7,-10.35 12.2,-23.5 21.15,-32.7 7.6,-7.8 14.15,-12.7 23.6,-17.7 19.65,-10.4 39.2,-13.15 60.15,-8.55 13.6,3.05 27.5,11.1 34.9,20.35 1.7,2.1 3.3,3.95 3.5,4 0.25,0.1 0.45,-5.35 0.45,-12.1 v -12.3 l 1.2,-0.5 c 1.25,-0.45 52.35,-0.35 53.15,0.15 0.2,0.15 0.4,43.55 0.4,96.45 v 96.15 l -26.95,0.15 c -14.85,0.05 -27.2,-0.1 -27.4,-0.3 -0.25,-0.25 -0.45,-5.2 -0.45,-11 0,-7.65 -0.2,-10.6 -0.6,-10.6 -0.3,0 -2.05,1.45 -3.85,3.2 -8.8,8.65 -21.75,16.1 -32.05,18.4 -12,2.7 -21.7,3.4 -29.95,2.15 z m 64.05,-97.85 c 0,-25.75 -20.9,-46.65 -46.65,-46.65 -25.7,0 -46.6,20.9 -46.6,46.65 0,25.7 20.9,46.6 46.6,46.6 25.75,0 46.65,-20.9 46.65,-46.6 z m -33.4,44.9"
       id="path6" />
    <path
       d="m 690.65,311.6 c 0,12.65 -10.25,22.95 -22.95,22.95 -12.65,0 -22.95,-10.3 -22.95,-22.95 0,-12.65 10.3,-22.95 22.95,-22.95 12.7,0 22.95,10.3 22.95,22.95 z M 664,334.4"
       id="path7" />
  </g>
  <g
     fill="#a6dade"
     id="g9"
     transform="translate(-230,-288.65)">
    <path
       d="m 672.25,693.7 c -7.8,-0.6 -14.6,-1.9 -26,-4.95 -6.6,-1.75 -17.8,-6.75 -26.4,-11.7 -6.1,-3.5 -14.85,-10.15 -21.1,-16.05 -1.9,-1.8 -4.35,-4 -5.4,-4.9 -1.75,-1.45 -1.85,-1.75 -1.25,-2.6 0.6,-0.85 5.6,-5.1 13.4,-11.5 7.1,-5.8 22.3,-18.7 23.1,-19.55 1.1,-1.25 1.5,-1.2 2.95,0.35 2.2,2.35 8.3,7.15 12.3,9.6 11.7,7.3 21.95,10.1 36.65,10.1 11.85,0 18.85,-1.55 27,-5.9 5.15,-2.75 7.5,-4.5 11.55,-8.6 8.1,-8.15 12.75,-19.7 12.95,-32.25 0.25,-12.3 -0.05,-24.25 -0.55,-24.25 -0.25,0 -2,1.2 -3.85,2.7 -7,5.65 -13.9,9.4 -22.4,12.2 -10.95,3.65 -12.5,3.85 -26.45,3.85 -13.6,-0.05 -16.5,-0.4 -25.2,-3.25 -12.1,-3.95 -19.85,-8.35 -29.75,-16.75 -4,-3.35 -11.7,-12.4 -15.6,-18.35 -4,-6.05 -9.05,-16.7 -9.95,-20.9 -0.55,-2.55 -0.95,-4.1 -1.5,-5.75 -1.45,-4.55 -3.25,-17.8 -3.25,-24.25 0.05,-23.45 9.7,-47.1 26,-63.55 6.75,-6.8 11.65,-10.65 19.25,-14.95 5.1,-2.9 14.6,-6.85 19.4,-8.05 9.35,-2.35 12.6,-2.7 23.6,-2.65 9,0 12.7,0.5 20,2.5 5.65,1.6 8.2,2.5 12.15,4.3 1.75,0.75 3.3,1.4 3.45,1.4 0.55,0 7.8,4.6 11.2,7.1 1.85,1.3 3.45,2.4 3.65,2.4 0.15,0 0.35,-5 0.4,-11.1 l 0.15,-11.15 27.45,-0.25 c 18.95,-0.15 27.5,-0.1 27.65,0.3 0.1,0.25 0.1,44.15 0,97.5 -0.15,88.1 -0.25,97.45 -1,102.2 -2.4,14.95 -4.8,22.7 -10.5,33.65 -10.7,20.6 -28.4,36.3 -51.35,45.45 -4,1.65 -5.55,2.15 -10.25,3.45 -1.1,0.3 -2.8,0.75 -3.75,1.05 -1.95,0.55 -4.2,1 -10.5,2.15 -4.15,0.75 -22.65,1.35 -28.25,0.95 z m 57.9,-191.65 c 0,-22.25 -18.05,-40.25 -40.3,-40.25 -22.25,0 -40.3,18 -40.3,40.25 0,22.25 18.05,40.3 40.3,40.3 22.25,0 40.3,-18.05 40.3,-40.3 z m -31.7,39.25"
       id="path9" />
  </g>
</svg>
